<mxfile host="app.diagrams.net" agent="Mozilla/5.0 (Macintosh; Intel Mac OS X 10_15_7) AppleWebKit/537.36 (KHTML, like Gecko) Chrome/139.0.0.0 Safari/537.36" version="28.1.1">
  <diagram name="第 1 页" id="V4SLH6FAE3oOz-CbCWSt">
    <mxGraphModel dx="1426" dy="800" grid="1" gridSize="10" guides="1" tooltips="1" connect="1" arrows="1" fold="1" page="1" pageScale="1" pageWidth="827" pageHeight="1169" math="0" shadow="0">
      <root>
        <mxCell id="0" />
        <mxCell id="1" parent="0" />
        <mxCell id="josDlDmpqx2x05p4uI3B-3" style="edgeStyle=orthogonalEdgeStyle;rounded=0;orthogonalLoop=1;jettySize=auto;html=1;exitX=0.5;exitY=1;exitDx=0;exitDy=0;" parent="1" source="josDlDmpqx2x05p4uI3B-1" target="josDlDmpqx2x05p4uI3B-2" edge="1">
          <mxGeometry relative="1" as="geometry" />
        </mxCell>
        <mxCell id="josDlDmpqx2x05p4uI3B-1" value="客户端定时来检测是否有待发放的优惠券" style="rounded=0;whiteSpace=wrap;html=1;" parent="1" vertex="1">
          <mxGeometry x="340" y="30" width="120" height="60" as="geometry" />
        </mxCell>
        <mxCell id="josDlDmpqx2x05p4uI3B-7" style="edgeStyle=orthogonalEdgeStyle;rounded=0;orthogonalLoop=1;jettySize=auto;html=1;exitX=0;exitY=0.5;exitDx=0;exitDy=0;entryX=0.5;entryY=0;entryDx=0;entryDy=0;" parent="1" source="josDlDmpqx2x05p4uI3B-2" target="josDlDmpqx2x05p4uI3B-4" edge="1">
          <mxGeometry relative="1" as="geometry" />
        </mxCell>
        <mxCell id="josDlDmpqx2x05p4uI3B-8" style="edgeStyle=orthogonalEdgeStyle;rounded=0;orthogonalLoop=1;jettySize=auto;html=1;exitX=0.5;exitY=1;exitDx=0;exitDy=0;entryX=0.5;entryY=0;entryDx=0;entryDy=0;" parent="1" source="josDlDmpqx2x05p4uI3B-2" target="josDlDmpqx2x05p4uI3B-5" edge="1">
          <mxGeometry relative="1" as="geometry" />
        </mxCell>
        <mxCell id="josDlDmpqx2x05p4uI3B-9" style="edgeStyle=orthogonalEdgeStyle;rounded=0;orthogonalLoop=1;jettySize=auto;html=1;exitX=1;exitY=0.5;exitDx=0;exitDy=0;entryX=0.5;entryY=0;entryDx=0;entryDy=0;" parent="1" source="josDlDmpqx2x05p4uI3B-2" target="josDlDmpqx2x05p4uI3B-6" edge="1">
          <mxGeometry relative="1" as="geometry" />
        </mxCell>
        <mxCell id="josDlDmpqx2x05p4uI3B-2" value="遍历所有复合&lt;div&gt;发放时间内的券&lt;/div&gt;" style="rhombus;whiteSpace=wrap;html=1;" parent="1" vertex="1">
          <mxGeometry x="330" y="140" width="140" height="110" as="geometry" />
        </mxCell>
        <mxCell id="josDlDmpqx2x05p4uI3B-25" style="edgeStyle=orthogonalEdgeStyle;rounded=0;orthogonalLoop=1;jettySize=auto;html=1;exitX=0.5;exitY=1;exitDx=0;exitDy=0;entryX=0.5;entryY=0;entryDx=0;entryDy=0;" parent="1" source="josDlDmpqx2x05p4uI3B-4" target="josDlDmpqx2x05p4uI3B-24" edge="1">
          <mxGeometry relative="1" as="geometry" />
        </mxCell>
        <mxCell id="josDlDmpqx2x05p4uI3B-4" value="全量发放&lt;div&gt;全部人群显示&lt;/div&gt;" style="rounded=0;whiteSpace=wrap;html=1;" parent="1" vertex="1">
          <mxGeometry x="90" y="320" width="120" height="60" as="geometry" />
        </mxCell>
        <mxCell id="josDlDmpqx2x05p4uI3B-15" style="edgeStyle=orthogonalEdgeStyle;rounded=0;orthogonalLoop=1;jettySize=auto;html=1;exitX=0.5;exitY=1;exitDx=0;exitDy=0;entryX=0.5;entryY=0;entryDx=0;entryDy=0;" parent="1" source="josDlDmpqx2x05p4uI3B-5" target="josDlDmpqx2x05p4uI3B-14" edge="1">
          <mxGeometry relative="1" as="geometry" />
        </mxCell>
        <mxCell id="josDlDmpqx2x05p4uI3B-5" value="定向人群发放&lt;div&gt;部分人群显示&lt;/div&gt;" style="rounded=0;whiteSpace=wrap;html=1;" parent="1" vertex="1">
          <mxGeometry x="340" y="320" width="120" height="60" as="geometry" />
        </mxCell>
        <mxCell id="josDlDmpqx2x05p4uI3B-17" style="edgeStyle=orthogonalEdgeStyle;rounded=0;orthogonalLoop=1;jettySize=auto;html=1;exitX=0.5;exitY=1;exitDx=0;exitDy=0;entryX=0.5;entryY=0;entryDx=0;entryDy=0;" parent="1" source="josDlDmpqx2x05p4uI3B-6" target="josDlDmpqx2x05p4uI3B-16" edge="1">
          <mxGeometry relative="1" as="geometry" />
        </mxCell>
        <mxCell id="josDlDmpqx2x05p4uI3B-6" value="升级券&lt;div&gt;部分人群显示&lt;/div&gt;" style="rounded=0;whiteSpace=wrap;html=1;" parent="1" vertex="1">
          <mxGeometry x="590" y="320" width="120" height="60" as="geometry" />
        </mxCell>
        <mxCell id="josDlDmpqx2x05p4uI3B-27" style="edgeStyle=orthogonalEdgeStyle;rounded=0;orthogonalLoop=1;jettySize=auto;html=1;exitX=0.5;exitY=1;exitDx=0;exitDy=0;" parent="1" source="josDlDmpqx2x05p4uI3B-14" target="josDlDmpqx2x05p4uI3B-18" edge="1">
          <mxGeometry relative="1" as="geometry" />
        </mxCell>
        <mxCell id="josDlDmpqx2x05p4uI3B-14" value="去查找Redis&amp;nbsp;&lt;div&gt;找到发放人群&lt;/div&gt;" style="rounded=0;whiteSpace=wrap;html=1;" parent="1" vertex="1">
          <mxGeometry x="340" y="470" width="120" height="60" as="geometry" />
        </mxCell>
        <mxCell id="josDlDmpqx2x05p4uI3B-28" style="edgeStyle=orthogonalEdgeStyle;rounded=0;orthogonalLoop=1;jettySize=auto;html=1;exitX=0.5;exitY=1;exitDx=0;exitDy=0;" parent="1" source="josDlDmpqx2x05p4uI3B-16" target="josDlDmpqx2x05p4uI3B-18" edge="1">
          <mxGeometry relative="1" as="geometry" />
        </mxCell>
        <mxCell id="josDlDmpqx2x05p4uI3B-16" value="去根据用户account_id,计算第一笔订单的付款时间是否在要求的展示时间范围内" style="rounded=0;whiteSpace=wrap;html=1;" parent="1" vertex="1">
          <mxGeometry x="555" y="470" width="190" height="60" as="geometry" />
        </mxCell>
        <mxCell id="josDlDmpqx2x05p4uI3B-18" value="用户展示优惠券" style="rounded=0;whiteSpace=wrap;html=1;" parent="1" vertex="1">
          <mxGeometry x="340" y="660" width="120" height="60" as="geometry" />
        </mxCell>
        <mxCell id="josDlDmpqx2x05p4uI3B-26" style="edgeStyle=orthogonalEdgeStyle;rounded=0;orthogonalLoop=1;jettySize=auto;html=1;exitX=0.5;exitY=1;exitDx=0;exitDy=0;" parent="1" source="josDlDmpqx2x05p4uI3B-24" target="josDlDmpqx2x05p4uI3B-18" edge="1">
          <mxGeometry relative="1" as="geometry" />
        </mxCell>
        <mxCell id="josDlDmpqx2x05p4uI3B-24" value="全部人" style="rounded=0;whiteSpace=wrap;html=1;" parent="1" vertex="1">
          <mxGeometry x="90" y="470" width="120" height="60" as="geometry" />
        </mxCell>
        <mxCell id="0SNS6dj9dEOXhOJafOYS-13" style="edgeStyle=orthogonalEdgeStyle;rounded=0;orthogonalLoop=1;jettySize=auto;html=1;exitX=0.5;exitY=1;exitDx=0;exitDy=0;entryX=0.5;entryY=0;entryDx=0;entryDy=0;" edge="1" parent="1" source="josDlDmpqx2x05p4uI3B-29" target="0SNS6dj9dEOXhOJafOYS-11">
          <mxGeometry relative="1" as="geometry" />
        </mxCell>
        <mxCell id="josDlDmpqx2x05p4uI3B-29" value="用户进入联合会员购买页" style="rounded=0;whiteSpace=wrap;html=1;" parent="1" vertex="1">
          <mxGeometry x="510" y="810" width="120" height="60" as="geometry" />
        </mxCell>
        <mxCell id="josDlDmpqx2x05p4uI3B-35" style="edgeStyle=orthogonalEdgeStyle;rounded=0;orthogonalLoop=1;jettySize=auto;html=1;exitX=0.5;exitY=1;exitDx=0;exitDy=0;" parent="1" source="josDlDmpqx2x05p4uI3B-41" edge="1">
          <mxGeometry relative="1" as="geometry">
            <mxPoint x="400" y="1070" as="targetPoint" />
          </mxGeometry>
        </mxCell>
        <mxCell id="0SNS6dj9dEOXhOJafOYS-29" style="edgeStyle=orthogonalEdgeStyle;rounded=0;orthogonalLoop=1;jettySize=auto;html=1;exitX=0.5;exitY=1;exitDx=0;exitDy=0;" edge="1" parent="1" source="josDlDmpqx2x05p4uI3B-38" target="0SNS6dj9dEOXhOJafOYS-28">
          <mxGeometry relative="1" as="geometry" />
        </mxCell>
        <mxCell id="josDlDmpqx2x05p4uI3B-38" value="原价/支付成功" style="rounded=0;whiteSpace=wrap;html=1;" parent="1" vertex="1">
          <mxGeometry x="680" y="1380" width="120" height="60" as="geometry" />
        </mxCell>
        <mxCell id="josDlDmpqx2x05p4uI3B-43" style="edgeStyle=orthogonalEdgeStyle;rounded=0;orthogonalLoop=1;jettySize=auto;html=1;exitX=0;exitY=0.5;exitDx=0;exitDy=0;" parent="1" source="josDlDmpqx2x05p4uI3B-41" target="josDlDmpqx2x05p4uI3B-42" edge="1">
          <mxGeometry relative="1" as="geometry" />
        </mxCell>
        <mxCell id="josDlDmpqx2x05p4uI3B-44" value="是" style="edgeLabel;html=1;align=center;verticalAlign=middle;resizable=0;points=[];" parent="josDlDmpqx2x05p4uI3B-43" vertex="1" connectable="0">
          <mxGeometry x="-0.261" y="-3" relative="1" as="geometry">
            <mxPoint as="offset" />
          </mxGeometry>
        </mxCell>
        <mxCell id="josDlDmpqx2x05p4uI3B-46" style="edgeStyle=orthogonalEdgeStyle;rounded=0;orthogonalLoop=1;jettySize=auto;html=1;exitX=0.5;exitY=1;exitDx=0;exitDy=0;" parent="1" source="josDlDmpqx2x05p4uI3B-41" target="josDlDmpqx2x05p4uI3B-49" edge="1">
          <mxGeometry relative="1" as="geometry">
            <mxPoint x="400" y="1210" as="targetPoint" />
          </mxGeometry>
        </mxCell>
        <mxCell id="josDlDmpqx2x05p4uI3B-48" value="否" style="edgeLabel;html=1;align=center;verticalAlign=middle;resizable=0;points=[];" parent="josDlDmpqx2x05p4uI3B-46" vertex="1" connectable="0">
          <mxGeometry x="-0.2397" y="2" relative="1" as="geometry">
            <mxPoint as="offset" />
          </mxGeometry>
        </mxCell>
        <mxCell id="josDlDmpqx2x05p4uI3B-60" style="edgeStyle=orthogonalEdgeStyle;rounded=0;orthogonalLoop=1;jettySize=auto;html=1;exitX=0.5;exitY=1;exitDx=0;exitDy=0;entryX=0;entryY=0.5;entryDx=0;entryDy=0;" parent="1" source="josDlDmpqx2x05p4uI3B-42" target="josDlDmpqx2x05p4uI3B-56" edge="1">
          <mxGeometry relative="1" as="geometry" />
        </mxCell>
        <mxCell id="josDlDmpqx2x05p4uI3B-42" value="支付失败/&lt;div&gt;不允许购买&lt;/div&gt;" style="rounded=0;whiteSpace=wrap;html=1;" parent="1" vertex="1">
          <mxGeometry x="90" y="1150" width="120" height="60" as="geometry" />
        </mxCell>
        <mxCell id="josDlDmpqx2x05p4uI3B-51" style="edgeStyle=orthogonalEdgeStyle;rounded=0;orthogonalLoop=1;jettySize=auto;html=1;exitX=0.5;exitY=1;exitDx=0;exitDy=0;" parent="1" source="josDlDmpqx2x05p4uI3B-49" target="josDlDmpqx2x05p4uI3B-50" edge="1">
          <mxGeometry relative="1" as="geometry" />
        </mxCell>
        <mxCell id="josDlDmpqx2x05p4uI3B-49" value="计算实际支付金额&lt;div&gt;支付金额 = 套餐原价*折扣价-原订单支付价&lt;/div&gt;" style="rounded=0;whiteSpace=wrap;html=1;" parent="1" vertex="1">
          <mxGeometry x="275" y="1150" width="250" height="80" as="geometry" />
        </mxCell>
        <mxCell id="josDlDmpqx2x05p4uI3B-53" style="edgeStyle=orthogonalEdgeStyle;rounded=0;orthogonalLoop=1;jettySize=auto;html=1;exitX=0;exitY=0.5;exitDx=0;exitDy=0;entryX=1;entryY=0.5;entryDx=0;entryDy=0;" parent="1" source="josDlDmpqx2x05p4uI3B-50" target="josDlDmpqx2x05p4uI3B-52" edge="1">
          <mxGeometry relative="1" as="geometry" />
        </mxCell>
        <mxCell id="josDlDmpqx2x05p4uI3B-61" value="否" style="edgeLabel;html=1;align=center;verticalAlign=middle;resizable=0;points=[];" parent="josDlDmpqx2x05p4uI3B-53" vertex="1" connectable="0">
          <mxGeometry x="-0.1667" y="-1" relative="1" as="geometry">
            <mxPoint as="offset" />
          </mxGeometry>
        </mxCell>
        <mxCell id="josDlDmpqx2x05p4uI3B-55" style="edgeStyle=orthogonalEdgeStyle;rounded=0;orthogonalLoop=1;jettySize=auto;html=1;exitX=0.5;exitY=1;exitDx=0;exitDy=0;entryX=0.5;entryY=0;entryDx=0;entryDy=0;" parent="1" source="josDlDmpqx2x05p4uI3B-50" target="josDlDmpqx2x05p4uI3B-54" edge="1">
          <mxGeometry relative="1" as="geometry" />
        </mxCell>
        <mxCell id="josDlDmpqx2x05p4uI3B-62" value="是" style="edgeLabel;html=1;align=center;verticalAlign=middle;resizable=0;points=[];" parent="josDlDmpqx2x05p4uI3B-55" vertex="1" connectable="0">
          <mxGeometry x="-0.4" relative="1" as="geometry">
            <mxPoint as="offset" />
          </mxGeometry>
        </mxCell>
        <mxCell id="josDlDmpqx2x05p4uI3B-63" value="" style="edgeStyle=orthogonalEdgeStyle;rounded=0;orthogonalLoop=1;jettySize=auto;html=1;" parent="1" source="josDlDmpqx2x05p4uI3B-50" target="josDlDmpqx2x05p4uI3B-52" edge="1">
          <mxGeometry relative="1" as="geometry" />
        </mxCell>
        <mxCell id="josDlDmpqx2x05p4uI3B-50" value="判断待支付金额是否&amp;gt;0" style="rhombus;whiteSpace=wrap;html=1;" parent="1" vertex="1">
          <mxGeometry x="360" y="1260" width="80" height="80" as="geometry" />
        </mxCell>
        <mxCell id="josDlDmpqx2x05p4uI3B-59" style="edgeStyle=orthogonalEdgeStyle;rounded=0;orthogonalLoop=1;jettySize=auto;html=1;exitX=0.5;exitY=1;exitDx=0;exitDy=0;entryX=0;entryY=0.5;entryDx=0;entryDy=0;" parent="1" source="josDlDmpqx2x05p4uI3B-52" target="josDlDmpqx2x05p4uI3B-56" edge="1">
          <mxGeometry relative="1" as="geometry" />
        </mxCell>
        <mxCell id="josDlDmpqx2x05p4uI3B-52" value="支付失败/&lt;div&gt;不允许购买&lt;/div&gt;" style="rounded=0;whiteSpace=wrap;html=1;" parent="1" vertex="1">
          <mxGeometry x="180" y="1270" width="120" height="60" as="geometry" />
        </mxCell>
        <mxCell id="0SNS6dj9dEOXhOJafOYS-27" style="edgeStyle=orthogonalEdgeStyle;rounded=0;orthogonalLoop=1;jettySize=auto;html=1;exitX=0.5;exitY=1;exitDx=0;exitDy=0;entryX=0.5;entryY=0;entryDx=0;entryDy=0;" edge="1" parent="1" source="josDlDmpqx2x05p4uI3B-54" target="0SNS6dj9dEOXhOJafOYS-26">
          <mxGeometry relative="1" as="geometry" />
        </mxCell>
        <mxCell id="josDlDmpqx2x05p4uI3B-54" value="折扣/支付成功" style="rounded=0;whiteSpace=wrap;html=1;" parent="1" vertex="1">
          <mxGeometry x="340" y="1380" width="120" height="60" as="geometry" />
        </mxCell>
        <mxCell id="josDlDmpqx2x05p4uI3B-56" value="结束" style="rounded=0;whiteSpace=wrap;html=1;" parent="1" vertex="1">
          <mxGeometry x="500" y="1660" width="120" height="60" as="geometry" />
        </mxCell>
        <mxCell id="josDlDmpqx2x05p4uI3B-64" value="" style="edgeStyle=orthogonalEdgeStyle;rounded=0;orthogonalLoop=1;jettySize=auto;html=1;exitX=0;exitY=0.5;exitDx=0;exitDy=0;" parent="1" source="0SNS6dj9dEOXhOJafOYS-11" target="josDlDmpqx2x05p4uI3B-41" edge="1">
          <mxGeometry relative="1" as="geometry">
            <mxPoint x="400" y="960" as="sourcePoint" />
            <mxPoint x="400" y="1070" as="targetPoint" />
          </mxGeometry>
        </mxCell>
        <mxCell id="0SNS6dj9dEOXhOJafOYS-25" value="是" style="edgeLabel;html=1;align=center;verticalAlign=middle;resizable=0;points=[];" vertex="1" connectable="0" parent="josDlDmpqx2x05p4uI3B-64">
          <mxGeometry x="0.2083" relative="1" as="geometry">
            <mxPoint as="offset" />
          </mxGeometry>
        </mxCell>
        <mxCell id="josDlDmpqx2x05p4uI3B-41" value="检查支付成功订单数是否大于1" style="rhombus;whiteSpace=wrap;html=1;" parent="1" vertex="1">
          <mxGeometry x="350" y="1020" width="100" height="90" as="geometry" />
        </mxCell>
        <mxCell id="0SNS6dj9dEOXhOJafOYS-3" style="edgeStyle=orthogonalEdgeStyle;rounded=0;orthogonalLoop=1;jettySize=auto;html=1;exitX=0.5;exitY=1;exitDx=0;exitDy=0;" edge="1" parent="1" source="0SNS6dj9dEOXhOJafOYS-1" target="josDlDmpqx2x05p4uI3B-38">
          <mxGeometry relative="1" as="geometry" />
        </mxCell>
        <mxCell id="0SNS6dj9dEOXhOJafOYS-1" value="折扣券" style="rounded=0;whiteSpace=wrap;html=1;" vertex="1" parent="1">
          <mxGeometry x="600" y="1150" width="120" height="60" as="geometry" />
        </mxCell>
        <mxCell id="0SNS6dj9dEOXhOJafOYS-5" style="edgeStyle=orthogonalEdgeStyle;rounded=0;orthogonalLoop=1;jettySize=auto;html=1;exitX=0.5;exitY=1;exitDx=0;exitDy=0;" edge="1" parent="1" source="0SNS6dj9dEOXhOJafOYS-2" target="josDlDmpqx2x05p4uI3B-38">
          <mxGeometry relative="1" as="geometry" />
        </mxCell>
        <mxCell id="0SNS6dj9dEOXhOJafOYS-2" value="满减券" style="rounded=0;whiteSpace=wrap;html=1;" vertex="1" parent="1">
          <mxGeometry x="760" y="1150" width="120" height="60" as="geometry" />
        </mxCell>
        <mxCell id="0SNS6dj9dEOXhOJafOYS-21" style="edgeStyle=orthogonalEdgeStyle;rounded=0;orthogonalLoop=1;jettySize=auto;html=1;exitX=1;exitY=0.5;exitDx=0;exitDy=0;" edge="1" parent="1" source="0SNS6dj9dEOXhOJafOYS-11" target="0SNS6dj9dEOXhOJafOYS-20">
          <mxGeometry relative="1" as="geometry" />
        </mxCell>
        <mxCell id="0SNS6dj9dEOXhOJafOYS-24" value="否" style="edgeLabel;html=1;align=center;verticalAlign=middle;resizable=0;points=[];" vertex="1" connectable="0" parent="0SNS6dj9dEOXhOJafOYS-21">
          <mxGeometry x="0.1176" y="1" relative="1" as="geometry">
            <mxPoint as="offset" />
          </mxGeometry>
        </mxCell>
        <mxCell id="0SNS6dj9dEOXhOJafOYS-11" value="检查优惠券&lt;div&gt;发放类型&lt;/div&gt;&lt;div&gt;是否是升级券发放&lt;/div&gt;" style="rhombus;whiteSpace=wrap;html=1;" vertex="1" parent="1">
          <mxGeometry x="490" y="900" width="160" height="100" as="geometry" />
        </mxCell>
        <mxCell id="0SNS6dj9dEOXhOJafOYS-22" style="edgeStyle=orthogonalEdgeStyle;rounded=0;orthogonalLoop=1;jettySize=auto;html=1;exitX=0.5;exitY=1;exitDx=0;exitDy=0;" edge="1" parent="1" source="0SNS6dj9dEOXhOJafOYS-20" target="0SNS6dj9dEOXhOJafOYS-1">
          <mxGeometry relative="1" as="geometry" />
        </mxCell>
        <mxCell id="0SNS6dj9dEOXhOJafOYS-23" style="edgeStyle=orthogonalEdgeStyle;rounded=0;orthogonalLoop=1;jettySize=auto;html=1;exitX=0.5;exitY=1;exitDx=0;exitDy=0;" edge="1" parent="1" source="0SNS6dj9dEOXhOJafOYS-20" target="0SNS6dj9dEOXhOJafOYS-2">
          <mxGeometry relative="1" as="geometry" />
        </mxCell>
        <mxCell id="0SNS6dj9dEOXhOJafOYS-20" value="普通券" style="rounded=0;whiteSpace=wrap;html=1;" vertex="1" parent="1">
          <mxGeometry x="680" y="1010" width="120" height="60" as="geometry" />
        </mxCell>
        <mxCell id="0SNS6dj9dEOXhOJafOYS-30" style="edgeStyle=orthogonalEdgeStyle;rounded=0;orthogonalLoop=1;jettySize=auto;html=1;exitX=0.5;exitY=1;exitDx=0;exitDy=0;" edge="1" parent="1" source="0SNS6dj9dEOXhOJafOYS-26" target="josDlDmpqx2x05p4uI3B-56">
          <mxGeometry relative="1" as="geometry" />
        </mxCell>
        <mxCell id="0SNS6dj9dEOXhOJafOYS-26" value="累计会员时间&lt;div&gt;从当前时间累加&lt;/div&gt;" style="rounded=0;whiteSpace=wrap;html=1;" vertex="1" parent="1">
          <mxGeometry x="340" y="1500" width="120" height="60" as="geometry" />
        </mxCell>
        <mxCell id="0SNS6dj9dEOXhOJafOYS-31" style="edgeStyle=orthogonalEdgeStyle;rounded=0;orthogonalLoop=1;jettySize=auto;html=1;exitX=0.5;exitY=1;exitDx=0;exitDy=0;" edge="1" parent="1" source="0SNS6dj9dEOXhOJafOYS-28" target="josDlDmpqx2x05p4uI3B-56">
          <mxGeometry relative="1" as="geometry" />
        </mxCell>
        <mxCell id="0SNS6dj9dEOXhOJafOYS-28" value="累计会员时间&lt;div&gt;从会员过期时间累加累加&lt;/div&gt;" style="rounded=0;whiteSpace=wrap;html=1;" vertex="1" parent="1">
          <mxGeometry x="665" y="1500" width="150" height="60" as="geometry" />
        </mxCell>
      </root>
    </mxGraphModel>
  </diagram>
</mxfile>
